<?xml version="1.0" encoding="UTF-8"?><svg id="_이어_2" xmlns="http://www.w3.org/2000/svg" viewBox="0 0 215.75 227.31"><g id="Layer_1"><g><rect x="21.71" y=".03" width="52.81" height="19.58" transform="translate(-.01 .06) rotate(-.07)"/><path d="M149.29,49.16c-.01-10.47,8.5-19,18.96-19.01,10.47-.01,19,8.5,19.01,18.97,.01,10.47-8.5,19-18.97,19.01-10.46,0-19-8.5-19.01-18.97Zm19.04,47.44c26.18-.03,47.45-21.35,47.41-47.52-.03-26.17-21.35-47.44-47.53-47.41-26.17,.03-47.44,21.35-47.41,47.52,.03,26.18,21.35,47.44,47.52,47.41Z"/><path d="M92.72,21.93l-89.19,.11,.03,25.51h6.77c-2.19,5.1-3.42,10.71-3.41,16.61,.03,23.23,18.95,42.1,42.18,42.07,23.23-.03,42.1-18.95,42.08-42.17,0-5.9-1.24-11.51-3.44-16.61h5.03l-.03-25.52Zm-43.66,55.83c-7.53,.01-13.65-6.11-13.66-13.63,0-7.53,6.1-13.65,13.63-13.66,7.52,0,13.66,6.1,13.66,13.63,0,7.53-6.11,13.65-13.63,13.66Z"/><polygon points="98.88 215.56 49.14 123.45 0 215.67 29.48 227.31 49.41 183.54 69.44 227.26 98.88 215.56"/><polygon points="159.34 158.13 207.59 158.07 207.56 127.22 127.25 127.31 127.37 223.43 207.67 223.34 207.63 192.09 159.37 192.15 159.34 158.13"/></g></g></svg>